<svg xmlns="http://www.w3.org/2000/svg" xmlns:xlink="http://www.w3.org/1999/xlink" id="visual" version="1.1" viewBox="0 445.11 900 155.89"><path d="M0 452L30 454.7C60 457.3 120 462.7 180 464.5C240 466.3 300 464.7 360 461.3C420 458 480 453 540 449.7C600 446.3 660 444.7 720 445.2C780 445.7 840 448.3 870 449.7L900 451L900 601L870 601C840 601 780 601 720 601C660 601 600 601 540 601C480 601 420 601 360 601C300 601 240 601 180 601C120 601 60 601 30 601L0 601Z" fill="#8f99b8"/><path d="M0 485L30 482.8C60 480.7 120 476.3 180 478C240 479.7 300 487.3 360 490.7C420 494 480 493 540 489C600 485 660 478 720 475C780 472 840 473 870 473.5L900 474L900 601L870 601C840 601 780 601 720 601C660 601 600 601 540 601C480 601 420 601 360 601C300 601 240 601 180 601C120 601 60 601 30 601L0 601Z" fill="#81839d"/><path d="M0 508L30 508.3C60 508.7 120 509.3 180 509.8C240 510.3 300 510.7 360 513.2C420 515.7 480 520.3 540 518.8C600 517.3 660 509.7 720 506.2C780 502.7 840 503.3 870 503.7L900 504L900 601L870 601C840 601 780 601 720 601C660 601 600 601 540 601C480 601 420 601 360 601C300 601 240 601 180 601C120 601 60 601 30 601L0 601Z" fill="#726e83"/><path d="M0 541L30 540.2C60 539.3 120 537.7 180 536.5C240 535.3 300 534.7 360 536.3C420 538 480 542 540 544.2C600 546.3 660 546.7 720 547.3C780 548 840 549 870 549.5L900 550L900 601L870 601C840 601 780 601 720 601C660 601 600 601 540 601C480 601 420 601 360 601C300 601 240 601 180 601C120 601 60 601 30 601L0 601Z" fill="#615a6a"/><path d="M0 571L30 570C60 569 120 567 180 568.2C240 569.3 300 573.7 360 575.7C420 577.7 480 577.3 540 576.7C600 576 660 575 720 573.3C780 571.7 840 569.3 870 568.2L900 567L900 601L870 601C840 601 780 601 720 601C660 601 600 601 540 601C480 601 420 601 360 601C300 601 240 601 180 601C120 601 60 601 30 601L0 601Z" fill="#4f4852"/></svg>